# Blender v2.81 (sub 16) OBJ File: 'plane.blend'
# www.blender.org
mtllib plane.mtl
o Plane
v 0.100281 0.000000 0.100000
v 0.176258 0.000000 0.100000
v 0.200321 0.000000 0.100000
v -0.099151 0.000000 0.000000
v 0.200321 -0.054819 0.000000
v 0.100281 0.000000 0.005563
v 0.200321 0.000000 0.008632
v 0.099548 -0.002164 0.007324
v 0.093627 -0.028117 0.004473
v 0.100281 0.000000 -0.100000
v 0.176258 0.000000 -0.100000
v 0.149305 0.000000 -0.100000
v 0.149305 0.000000 0.100000
v 0.200321 0.000000 -0.100000
v 0.100281 -0.038147 0.000000
v 0.100281 0.000000 -0.005563
v 0.200321 0.000000 -0.008632
v 0.099548 -0.002164 -0.007324
v 0.093627 -0.028117 -0.004473
vt 1.000000 0.250000
vt 1.000000 0.000000
vt 1.000000 0.000000
vt 1.000000 0.250000
vt 0.000000 0.500000
vt 1.000000 0.500000
vt 1.000000 0.500000
vt 1.000000 0.000000
vt 1.000000 0.000000
vt 1.000000 0.250000
vt 1.000000 0.250000
vt 1.000000 0.000000
vt 1.000000 0.000000
vt 1.000000 0.000000
vt 1.000000 0.000000
vn 0.0000 1.0000 0.0000
vn 0.0277 0.1509 -0.9882
vn 0.0276 0.1442 -0.9892
vn -0.0117 -0.9997 0.0234
vn -0.0377 -0.1006 0.9942
vn 0.0277 0.1509 0.9882
vn 0.0276 0.1442 0.9892
vn -0.0117 -0.9997 -0.0234
vn -0.0377 -0.1006 -0.9942
usemtl None
s off
f 6/1/1 1/2/1 3/3/1 7/4/1
f 4/5/1 1/2/1 6/1/1
f 15/6/2 6/1/2 7/4/2 5/7/2
f 15/6/3 4/5/3 6/1/3
f 1/2/4 4/5/4 8/8/4
f 8/8/5 4/5/5 9/9/5
f 16/10/1 17/11/1 14/12/1 10/13/1
f 4/5/1 16/10/1 10/13/1
f 15/6/6 5/7/6 17/11/6 16/10/6
f 15/6/7 16/10/7 4/5/7
f 10/13/8 18/14/8 4/5/8
f 18/14/9 19/15/9 4/5/9
l 3 2
l 2 13
l 14 11
l 11 12
